<svg xmlns="http://www.w3.org/2000/svg" width="14" height="14.006" viewBox="0 0 14 14.006">
  <path id="proper_fucking_phone" data-name="proper fucking phone" d="M1705.92,112.517c.561-.561,2.253-.654,2.266-.357s1.526,3.584,1.539,3.88-1,1.307-1.293,1.6,1.976,2.858,2.019,2.907,2.613,2.313,2.906,2.02,1.306-1.306,1.6-1.293,3.582,1.526,3.879,1.539.2,1.706-.357,2.267c-.479.479-2.96,2.219-7.273-.888a13.689,13.689,0,0,1-2.358-2.032l0,0,0,0,0,0,0,0a13.689,13.689,0,0,1-2.031-2.359C1703.7,115.478,1705.441,113,1705.92,112.517Z" transform="translate(-1705.002 -111.994)" fill="#fff"/>
</svg>
