<svg xmlns="http://www.w3.org/2000/svg" width="20" height="23.01" viewBox="0 0 20 23.01">
  <path id="clipboard_w_tick" data-name="clipboard w tick" d="M716.56,875.01a4.45,4.45,0,1,1,4.44-4.45A4.45,4.45,0,0,1,716.56,875.01Zm-1.58-4.465a.654.654,0,0,0-.462,1.116l.58.581a.624.624,0,0,0,.2.337.887.887,0,0,0,.569.194h.026a.663.663,0,0,0,.211-.037.826.826,0,0,0,.331-.158l2.842-2.372a.6.6,0,0,0,0-.949.918.918,0,0,0-1.137,0l-2.28,1.9-.424-.424A.649.649,0,0,0,714.981,870.545Zm-3.052,3.725H702.48a1.481,1.481,0,0,1-1.48-1.48V856.45a1.481,1.481,0,0,1,1.48-1.48h3.708v1.854c0,.614.277,1.114.618,1.114h6.176c.341,0,.618-.5.618-1.114V854.97h3.71a1.482,1.482,0,0,1,1.48,1.48v8.6a5.94,5.94,0,0,0-6.863,9.213Zm.189-17.074H707.67a.742.742,0,0,1-.741-.743v-1.484a.743.743,0,0,1,.741-.743h.045a1.589,1.589,0,0,1-.045-.371,2.26,2.26,0,0,1,4.448,0,1.588,1.588,0,0,1-.045.371h.045a.743.743,0,0,1,.741.743v1.484A.742.742,0,0,1,712.118,857.2Zm-2.968-3.716v1.48h1.481v-1.48Z" transform="translate(-701 -851.999)" fill="#e25050"/>
</svg>
