<svg xmlns="http://www.w3.org/2000/svg" width="19" height="22.999" viewBox="0 0 19 22.999">
  <path id="group" d="M1608.6,875.233v-5.367l-2.28-1.534-.76-6.133a18.841,18.841,0,0,1,10.641,0l-.76,6.133-2.28,1.534v5.367a4.829,4.829,0,0,1-2.281.767A4.755,4.755,0,0,1,1608.6,875.233Zm5.32-1.533v-3.834l2.281-1.534.75-6.807a17.917,17.917,0,0,1,3.05.787l-.6,5.4-1.682,1.385v4.6a2.74,2.74,0,0,1-3.8,0Zm-10.64,0v-4.6l-1.52-1.533L1601,862.2l.012,0a17.915,17.915,0,0,1,3.789-.751l.759,6.889,1.52,1.022V873.7a2.739,2.739,0,0,1-3.8,0Zm3.8-16.87a3.8,3.8,0,1,1,3.8,3.83A3.815,3.815,0,0,1,1607.08,856.83Zm7.16,3.109a4.636,4.636,0,0,0,.73-5.145,3,3,0,0,1,1.23-.261,3.063,3.063,0,1,1-1.96,5.406Zm-11.723-2.343a3.057,3.057,0,0,1,3.043-3.064,2.99,2.99,0,0,1,1.23.261,4.636,4.636,0,0,0,.73,5.145,3.039,3.039,0,0,1-5-2.343Z" transform="translate(-1601 -853)" fill="#e25050"/>
</svg>
