<svg xmlns="http://www.w3.org/2000/svg" width="26" height="22.019" viewBox="0 0 26 22.019">
  <path id="like_plus" data-name="like plus" d="M1021.429,860.228a6.458,6.458,0,0,0-4.077,11.5c-1.91,1.4-3.352,2.281-3.352,2.281s-13-7.93-13-14.32c0-3.849,2.4-7.7,6.964-7.7,4.178,0,6.036,3.937,6.036,3.937a6.717,6.717,0,0,1,6.036-3.937c4.411,0,6.887,3.772,6.887,7.7a6.568,6.568,0,0,1-.665,2.688A6.492,6.492,0,0,0,1021.429,860.228Zm0,.924a5.543,5.543,0,1,1-5.572,5.544A5.558,5.558,0,0,1,1021.429,861.152Zm-2.786,6.467h1.857v1.848h1.857v-1.848h1.857v-1.848h-1.857v-1.848H1020.5v1.848h-1.857Z" transform="translate(-1001 -851.99)" fill="#e25050"/>
</svg>
