<svg xmlns="http://www.w3.org/2000/svg" width="16.012" height="21.99" viewBox="0 0 16.012 21.99">
  <path id="takeaway_cup" data-name="takeaway cup" d="M1316.972,857.354H1301l.016-1.708h1.276l2.7-2.646h8.1l2.646,2.646h1.276Zm-6.6-2.59h-2.662v.882h2.662Zm5.173,9.7h-3a3.974,3.974,0,0,0-7.079,0h-2.948l-.574-6.172h14.2Zm-8.723,1.764a2.218,2.218,0,1,1,2.219,2.2A2.212,2.212,0,0,1,1306.823,866.226Zm2.182,4a3.985,3.985,0,0,0,3.6-2.278h2.605l-.678,7.036H1303.5l-.654-7.036h2.563A3.985,3.985,0,0,0,1309,870.231Z" transform="translate(-1301 -853)" fill="#e25050"/>
</svg>
